<svg width="59" height="33" viewBox="0 0 59 33" fill="none" xmlns="http://www.w3.org/2000/svg">
<ellipse cx="19.5" cy="16.5" rx="19.5" ry="16.5" fill="#D9D9D9"/>
<path d="M57 13H46L51.1333 19L57 13Z" fill="#D9D9D9" stroke="black"/>
<path d="M12.4148 21H11.3068L14.5114 12.2727H15.6023L18.8068 21H17.6989L15.0909 13.6534H15.0227L12.4148 21ZM12.8239 17.5909H17.2898V18.5284H12.8239V17.5909ZM20.1662 21V12.2727H23.1151C23.7969 12.2727 24.3565 12.3892 24.794 12.6222C25.2315 12.8523 25.5554 13.169 25.7656 13.5724C25.9759 13.9759 26.081 14.4347 26.081 14.9489C26.081 15.4631 25.9759 15.919 25.7656 16.3168C25.5554 16.7145 25.233 17.027 24.7983 17.2543C24.3636 17.4787 23.8082 17.5909 23.1321 17.5909H20.7457V16.6364H23.098C23.5639 16.6364 23.9389 16.5682 24.223 16.4318C24.5099 16.2955 24.7173 16.1023 24.8452 15.8523C24.9759 15.5994 25.0412 15.2983 25.0412 14.9489C25.0412 14.5994 24.9759 14.294 24.8452 14.0327C24.7145 13.7713 24.5057 13.5696 24.2188 13.4276C23.9318 13.2827 23.5526 13.2102 23.081 13.2102H21.223V21H20.1662ZM24.2741 17.0795L26.4219 21H25.1946L23.081 17.0795H24.2741Z" fill="black"/>
</svg>
